# xmcd
#
# Track frame offsets:
#	150
#	18937
#	42417
#	63710
#	83850
#	105100
#	127300
#	146352
#	165797
#	187795
#	209547
#	236240
#	256012
#	273267
#	296297
#
# Disc length: 4203 seconds
#
# Revision: 1
# Processed by: cddbd v1.5.1PL0 Copyright (c) Steve Scherf et al.
# Submitted via: CDex 1.50Beta5
#
DISCID=c910690f
DTITLE=DJ HASEBE - REALRHYME TRAX phase2.
DYEAR=2002
DGENRE=Rock
TTITLE0=DJ HASEBE/Shotcaller
TTITLE1=MIC BANDITZ/Radio Radio
TTITLE2=GAGLE/LIVE LIFE LIVE
TTITLE3=EELMAN/深海魚
TTITLE4=RYO the SKYWALKER/One Night Flower-Remix-
TTITLE5=TATE feat.MARKIE/喜びの唄
TTITLE6=Tyler/GIVE ME YOUR LOVE-DJ WATARAI Deep forest mix-
TTITLE7=F.O.H/SEXY WORLD
TTITLE8=GAKU-MC/昨日のNo,明日のYes
TTITLE9=SOFFet/マイペース
TTITLE10=Mount Sugar/オレンジ
TTITLE11=SBK/Devastated
TTITLE12=GOICHI/RASHINBAN
TTITLE13=KICK THE CAN CREW/KICK オフ(DJ TATSUTA remix)
TTITLE14=RIP SLYME/By the Way-YSST remix-
EXTD=
EXTT0=
EXTT1=
EXTT2=
EXTT3=
EXTT4=
EXTT5=
EXTT6=
EXTT7=
EXTT8=
EXTT9=
EXTT10=
EXTT11=
EXTT12=
EXTT13=
EXTT14=
PLAYORDER=
